<svg width="1165" height="124" viewBox="0 0 1165 124" fill="none" xmlns="http://www.w3.org/2000/svg">
<path d="M682.751 5.22116C587.279 2.57456 505.857 24.3355 477.08 35.5468L406.232 50.9316C404.381 51.3336 402.503 51.5201 400.609 51.4608C366.642 50.3971 296.105 43.1722 216.456 51.9966C210.951 52.6066 205.449 53.6158 200.325 55.7199C170.925 67.7923 162.354 93.4445 172.5 122.5C190.274 122.5 383.885 123 1007.5 123C1124 66.5 802.091 8.52941 682.751 5.22116Z" fill="#E0E5FF"/>
<rect x="440" y="20" width="203" height="79.6679" fill="#AAB8FE" fill-opacity="0.14" stroke="white" stroke-width="0.659349" stroke-linecap="round"/>
<path d="M506.768 47.0004L487.669 65.4173C490.625 68.6004 498.583 76.8767 506.768 84.5162C519.319 67.6 511.998 52.4573 506.768 47.0004Z" fill="#BBC6FF"/>
<circle cx="481.53" cy="65.4173" r="29.3305" stroke="white" stroke-width="0.759239" stroke-linecap="round"/>
<path d="M482.212 66.0994V36.0868C492.689 36.0868 500.447 42.7082 503.357 45.6363L482.212 66.0994Z" fill="white"/>
<line x1="482.471" y1="65.8219" x2="502.934" y2="84.9209" stroke="white" stroke-width="0.759239"/>
<circle cx="445.751" cy="26.5743" r="1.97805" fill="white"/>
<circle cx="454.323" cy="26.5743" r="1.97805" fill="white"/>
<circle cx="462.894" cy="26.5743" r="1.97805" fill="white"/>
<rect x="531.101" y="32.2566" width="98.0126" height="9.01265" fill="#BBC6FF"/>
<rect x="531" y="44" width="98.0126" height="51.2594" fill="#BBC6FF"/>
<path d="M559.965 54.5148L531.101 95.0718H629.677L609.13 70.4579L585.893 85.8416L559.965 54.5148Z" fill="#E1E8FE"/>
<circle cx="610.525" cy="53.3882" r="5.63291" fill="#E1E8FE"/>
<line x1="0.430363" y1="96.5696" x2="135.564" y2="96.5696" stroke="#C0C9FF" stroke-width="0.860727" stroke-linecap="round"/>
<line x1="37.4416" y1="44.4304" x2="37.4416" y2="117.592" stroke="#C0C9FF" stroke-width="0.860727" stroke-linecap="round"/>
<g opacity="0.78">
<rect x="108" y="17" width="92.9585" height="63.1599" stroke="#96A4FF" stroke-width="0.605808" stroke-linecap="round"/>
<line x1="108.303" y1="23.1751" x2="200.656" y2="23.1751" stroke="#96A4FF" stroke-width="0.605808" stroke-linecap="round"/>
<circle cx="111.887" cy="20.2389" r="1.29559" fill="#AAB5FF"/>
<circle cx="117.393" cy="20.2389" r="1.29559" fill="#AAB5FF"/>
<circle cx="122.899" cy="20.2389" r="1.29559" fill="#AAB5FF"/>
<rect x="113.506" y="30.2798" width="24.2923" height="21.0533" fill="#D4DAFD"/>
<rect x="113.506" y="56.1916" width="24.2923" height="21.0533" fill="#D4DAFD"/>
<rect x="142.657" y="30.2798" width="24.2923" height="21.0533" fill="#D4DAFD"/>
<rect x="142.657" y="56.1916" width="24.2923" height="21.0533" fill="#D4DAFD"/>
<rect x="170.836" y="30.2798" width="24.2923" height="21.0533" fill="#D4DAFD"/>
<rect x="170.836" y="56.1916" width="24.2923" height="21.0533" fill="#D4DAFD"/>
<rect x="111.887" y="28.6603" width="24.2923" height="20.7294" stroke="#AAB5FF" stroke-width="0.605808" stroke-linecap="round"/>
<rect x="111.887" y="54.572" width="24.2923" height="20.7294" stroke="#AAB5FF" stroke-width="0.605808" stroke-linecap="round"/>
<rect x="141.038" y="28.6603" width="24.2923" height="20.7294" stroke="#AAB5FF" stroke-width="0.605808" stroke-linecap="round"/>
<rect x="141.038" y="54.572" width="24.2923" height="20.7294" stroke="#AAB5FF" stroke-width="0.605808" stroke-linecap="round"/>
<rect x="169.216" y="28.6603" width="24.2923" height="20.7294" stroke="#AAB5FF" stroke-width="0.605808" stroke-linecap="round"/>
<rect x="169.216" y="54.572" width="24.2923" height="20.7294" stroke="#AAB5FF" stroke-width="0.605808" stroke-linecap="round"/>
</g>
<rect x="838.727" y="4.05206" width="133.042" height="39.845" fill="#BBC4FF"/>
<rect x="834.338" y="0.33767" width="132.367" height="39.1697" stroke="white" stroke-width="0.675339"/>
<rect x="879.248" y="12.8315" width="81.7161" height="2.02602" fill="white"/>
<rect x="879.248" y="23.6369" width="29.7149" height="2.02602" fill="white"/>
<rect x="843.898" y="11.6199" width="24.1003" height="22.3789" stroke="white" stroke-width="0.860727"/>
<path d="M846.779 19.6126H849.705C850.431 19.6126 850.996 19.7893 851.4 20.1428C851.804 20.49 852.006 20.9665 852.006 21.5725C852.006 22.1784 851.801 22.6581 851.39 23.0116C850.986 23.3651 850.425 23.5418 849.705 23.5418H848.001V26.3538H846.779V19.6126ZM849.563 22.595C849.986 22.595 850.305 22.5098 850.519 22.3394C850.74 22.1627 850.851 21.9102 850.851 21.582C850.851 21.2474 850.743 20.9949 850.529 20.8245C850.314 20.6478 849.992 20.5594 849.563 20.5594H848.001V22.595H849.563ZM853.085 19.6126H855.566C856.67 19.6126 857.526 19.9061 858.132 20.4931C858.744 21.0801 859.05 21.907 859.05 22.9737C859.05 24.0468 858.744 24.88 858.132 25.4733C857.526 26.0603 856.67 26.3538 855.566 26.3538H853.085V19.6126ZM855.49 25.3597C857.043 25.3597 857.819 24.5644 857.819 22.9737C857.819 21.3957 857.043 20.6067 855.49 20.6067H854.307V25.3597H855.49ZM860.297 26.3538V19.6126H864.7V20.5878H861.509V22.4341H864.51V23.4187H861.509V26.3538H860.297Z" fill="white"/>
<rect x="849.362" y="78.3625" width="26.1" height="26.825" stroke="white" stroke-width="0.725"/>
<rect x="845" y="75" width="26.825" height="27.55" fill="#BBC4FF"/>
<path d="M855.979 93.9018V97.1643H861.105V93.9018" stroke="white" stroke-width="0.932143" stroke-linecap="round"/>
<path fill-rule="evenodd" clip-rule="evenodd" d="M860.639 93.4309C862.293 92.6455 863.436 90.9603 863.436 89.0081C863.436 86.3053 861.245 84.1143 858.542 84.1143C855.839 84.1143 853.648 86.3053 853.648 89.0081C853.648 90.9602 854.791 92.6454 856.445 93.4309V94.445C854.263 93.603 852.716 91.4863 852.716 89.0081C852.716 85.7905 855.324 83.1822 858.542 83.1822C861.76 83.1822 864.368 85.7905 864.368 89.0081C864.368 91.4863 862.821 93.6031 860.639 94.4451V93.4309Z" fill="white"/>
<path d="M855.746 98.7955H861.571" stroke="white" stroke-width="0.932143"/>
<line x1="847.123" y1="90.1732" x2="849.92" y2="90.1732" stroke="white" stroke-width="0.932143"/>
<line y1="-0.466071" x2="2.7627" y2="-0.466071" transform="matrix(0.688865 0.72489 -0.688865 0.72489 850.422 81.9611)" stroke="white" stroke-width="0.932143"/>
<line x1="857.843" y1="81.3178" x2="857.843" y2="78.9874" stroke="white" stroke-width="0.932143"/>
<line y1="-0.466071" x2="2.7627" y2="-0.466071" transform="matrix(0.688865 -0.72489 0.688865 0.72489 864.759 84.0974)" stroke="white" stroke-width="0.932143"/>
<line x1="867.164" y1="90.1732" x2="869.961" y2="90.1732" stroke="white" stroke-width="0.932143"/>
<path d="M721.76 31.132C728.315 38.7565 734.771 49.7451 737.279 53.9252C735.825 54.6524 735.114 61.2051 734.721 64.8348L734.71 64.9381C728.423 58.785 721.482 45.2885 718.918 39.1577L713.567 32.9712C715.351 31.5779 719.486 29.2593 721.76 31.132Z" fill="#E0E5FF" stroke="#A9B5FF" stroke-width="0.734194"/>
<path d="M813.144 78.9711L811.433 78.5207L805.192 91.002L812.473 93.3049C813.79 93.7214 815.235 93.5356 816.228 92.5759C822.38 86.6324 833.07 68.7017 837.024 58.715C837.206 58.2569 837.122 57.7451 836.819 57.357L834.686 54.6321C834.404 54.2721 833.86 54.271 833.577 54.6297L831.487 57.2764C831.565 57.0053 831.617 56.525 831.441 56.1481C831.256 55.7494 830.714 55.7621 830.386 56.0548C829.214 57.1002 828.191 59.7392 827.43 60.804C826.887 61.5644 826.588 62.6524 826.452 63.408C826.386 63.777 826.238 64.1304 825.99 64.4115L813.144 78.9711Z" stroke="#A9B5FF" stroke-width="0.352758"/>
<path d="M813.268 78.8878L785.976 61.0169L757.217 59.3449C746.181 57.1712 740.791 54.2961 737.279 52.4568C735.607 54.4633 734.31 60.3481 733.975 65.197C740.664 71.7514 750.138 74.839 754.04 75.5636L754.033 75.6138C753.72 77.8034 754.411 80.0173 755.914 81.6402L757.718 83.5893C757.886 88.0481 758.32 97.8351 758.722 101.313C773.435 106.496 787.481 102.483 788.317 102.316C789.153 102.149 790.49 101.313 789.32 98.972C785.441 90.6788 784.324 83.9425 784.268 81.8246C790.176 84.7228 803.317 90.999 806.661 92.4704C807.998 90.999 811.708 82.622 813.268 78.8878Z" fill="#A9B5FF"/>
<path d="M831.487 57.6578C831.249 58.2534 830.818 59.2671 830.476 59.9061C830.339 60.1624 830.363 60.78 830.463 61.0529C830.842 62.0867 830.92 64.1224 830.782 64.5366" stroke="#A9B5FF" stroke-width="0.352758"/>
<path d="M832.369 59.7744L834.662 55.5413M833.604 60.8327L835.72 56.776M834.662 61.5382L836.426 57.6579M832.193 59.4217L833.78 61.7146" stroke="#A9B5FF" stroke-width="0.352758"/>
<path d="M757.637 59.8139C757.236 58.3426 758.807 55.8568 759.643 54.7979L764.155 55.3086L764.827 60.4828L760.981 60.9844C760.034 61.2073 758.038 61.2853 757.637 59.8139Z" fill="#96A4FF"/>
<path d="M763.322 55.4667C757.436 57.3393 758.306 48.5556 759.476 43.9296L761.952 40.6247L770.028 45.397L773.856 59.814C771.047 63.8268 767.446 65.1645 765.997 65.3317C765.718 63.9383 764.793 60.0146 763.322 55.4667Z" fill="#D4DAFD" stroke="#A9B5FF" stroke-width="0.734194"/>
<path d="M761.817 51.2865C762.096 51.398 762.82 51.4203 763.489 50.6177" stroke="#96A4FF" stroke-width="0.734194" stroke-linecap="round"/>
<path d="M761.315 48.2769C760.814 48.9457 760.112 50.3502 761.315 50.6178" stroke="#96A4FF" stroke-width="0.734194"/>
<circle cx="759.309" cy="47.6081" r="1.83924" stroke="#96A4FF" stroke-width="0.734194"/>
<circle cx="763.991" cy="47.6081" r="1.83924" stroke="#96A4FF" stroke-width="0.734194"/>
<line x1="761.148" y1="47.0738" x2="762.151" y2="47.0738" stroke="#96A4FF" stroke-width="0.734194"/>
<line x1="765.77" y1="47.0788" x2="767.776" y2="46.7443" stroke="#96A4FF" stroke-width="0.734194"/>
<path d="M756.557 111.129C756.958 108.052 758.953 103.381 759.901 101.431C772.124 105.662 789.04 103.116 789.328 101.431C789.496 101.431 790.064 101.799 791 103.27C791.937 104.741 797.521 117.036 800.197 123H755.721C755.832 120.325 756.155 114.205 756.557 111.129Z" fill="#BEC7FF"/>
<path d="M766.164 39.0806C760.279 38.0105 758.204 42.9123 759.672 44.3806C760.062 43.8233 761.405 41.9789 762.609 41.4439C763.111 43.7847 767.502 47.608 768.004 47.1064C768.505 46.6048 769.341 46.6048 770.01 48.1096C770.545 49.3135 769.23 50.2833 768.505 50.6177C771.252 51.9911 771.863 55.6863 773.265 58.4184C774.417 60.6626 775.88 62.6013 777.534 63.3251C779.674 64.2615 781.436 62.0432 782.049 60.8171C783.331 61.04 786.262 60.8505 787.734 58.309C787.867 53.4936 783.776 51.7324 781.714 51.4537C780.488 51.6209 775.528 51.4537 773.689 48.6112C771.682 44.2639 769.843 41.0871 768.004 39.9167C769.341 40.0839 771.18 36.907 769.174 35.7366C766.332 35.235 766.164 35.7366 766.164 39.0806Z" fill="#96A4FF"/>
<path d="M709.041 39.6143L727.659 33.4084C728.429 33.1519 728.844 32.3203 728.588 31.551L724.229 18.472L721.97 11.6952C721.87 11.397 721.678 11.1385 721.421 10.9579L714.66 6.20919C714.278 5.94155 713.793 5.87053 713.351 6.01778L708.702 7.5673L699.393 10.6703C698.624 10.9267 698.208 11.7583 698.464 12.5276L707.183 38.6856C707.44 39.4549 708.271 39.8707 709.041 39.6143Z" fill="#B9C3FF"/>
<path d="M720.876 31.2937L723.374 32.959L724.475 35.1616L721.113 36.914C720.311 36.2452 720.444 34.183 720.612 33.2355L719.901 32.3706C719.365 31.7183 720.173 30.8254 720.876 31.2937Z" fill="#E0E5FF"/>
<path d="M721.113 36.914C720.311 36.2452 720.444 34.183 720.612 33.2355L719.747 32.1828C719.215 31.5354 720.008 30.6456 720.712 31.0998L721.949 31.8979C722.669 32.374 724.181 33.5464 724.475 34.4274" stroke="#A9B5FF" stroke-width="0.734194"/>
<rect width="8.50086" height="1.70971" transform="matrix(0.940827 -0.338888 0.268085 0.963395 702.985 18.9094)" fill="#D4DAFD"/>
<rect x="704.137" y="22.6171" width="17.896" height="1.7277" transform="rotate(-17.5676 704.137 22.6171)" fill="#D4DAFD"/>
<rect x="705.491" y="26.288" width="17.896" height="1.7277" transform="rotate(-17.5676 705.491 26.288)" fill="#D4DAFD"/>
<rect x="706.96" y="30.6932" width="17.896" height="1.7277" transform="rotate(-17.5676 706.96 30.6932)" fill="#D4DAFD"/>
<rect x="236.263" y="18.6619" width="103.392" height="82.3022" fill="#C5CDFF"/>
<rect x="239.606" y="22.0054" width="96.705" height="75.1007" stroke="white" stroke-width="0.514389"/>
<rect x="285.129" y="31.0072" width="41.6655" height="53.4964" fill="white"/>
<path d="M287.701 84.7608V33.5791H324.223V84.7608" stroke="#C9D0FF" stroke-width="0.514389"/>
<path d="M279.471 84.5036H323.194V91.1907H284.615C281.774 91.1907 279.471 88.8877 279.471 86.0468V84.5036Z" fill="#FCFCFC"/>
<path d="M319.594 84.5036H326.795V87.5899C326.795 89.5786 325.183 91.1907 323.194 91.1907C321.206 91.1907 319.594 89.5786 319.594 87.5899V84.5036Z" fill="#ECECEC"/>
<path d="M313.435 40.9663H315.731L311.065 54.1511H309.121L305.806 44.6699L302.454 54.1511H300.51L295.862 40.9663H298.288L301.584 50.7993L305.01 40.9663H306.713L310.065 50.8734L313.435 40.9663Z" fill="#C9D0FF"/>
<rect x="291.817" y="60.8417" width="27.777" height="1.02878" fill="#C9D0FF"/>
<rect x="291.817" y="64.4424" width="27.777" height="1.02878" fill="#C9D0FF"/>
<rect x="291.817" y="68.0432" width="27.777" height="1.02878" fill="#C9D0FF"/>
<rect x="291.817" y="71.6439" width="27.777" height="1.02878" fill="#C9D0FF"/>
<rect x="291.817" y="75.2446" width="27.777" height="1.02878" fill="#C9D0FF"/>
<rect x="291.817" y="78.8453" width="27.777" height="1.02878" fill="#C9D0FF"/>
<circle cx="307.505" cy="31.2644" r="3.34353" fill="#5A70FD"/>
<rect x="247.065" y="38.723" width="26.7482" height="2.05755" fill="#8F9FFF"/>
<rect x="247.065" y="51.5828" width="26.7482" height="2.05755" fill="#8F9FFF"/>
<rect x="247.065" y="65.9856" width="26.7482" height="2.05755" fill="#8F9FFF"/>
<rect x="247.065" y="80.3885" width="26.7482" height="2.05755" fill="#8F9FFF"/>
<path d="M236.263 18.5H279.471V60.9532H236.263V18.5Z" fill="#8F9FFF"/>
<path d="M275.356 9H237.944L231 16.4586V56.5809H275.356V9Z" fill="#DDE2FF"/>
<rect x="231" y="20" width="24" height="12" fill="white"/>
<rect x="236" y="37" width="32" height="2" fill="white"/>
<rect x="236" y="43" width="32" height="2" fill="white"/>
<rect x="236" y="49" width="32" height="2" fill="white"/>
<rect x="365" y="70" width="40.1223" height="25.7194" fill="#A9B5FF"/>
<rect x="367.058" y="71.5432" width="36.0072" height="22.6331" fill="white"/>
<rect x="370.915" y="74.8867" width="19.5468" height="16.9748" stroke="#A9B5FF" stroke-width="0.514389"/>
<path d="M381.714 83.1853L385.639 88H382.88L380.362 84.8334L377.843 88H375.103L379.028 83.1853L375.343 78.6484H378.084L380.362 81.5557L382.639 78.6484H385.399L381.714 83.1853Z" fill="#A9B5FF"/>
<path d="M394.32 81.3165V70H399.721V81.8309L396.892 79.0018L394.32 81.3165Z" fill="#A9B5FF"/>
<line x1="339" y1="87.5" x2="366" y2="87.5" stroke="#A9B5FF"/>
<path d="M230.824 40.1272C212.016 71.9233 215.251 127.474 378.658 95.3069C516.898 48.2545 563.731 67.5032 635.391 74.3472C656.644 75.773 698.521 76.7997 708 39.5" stroke="#6D82FF" stroke-width="0.430363" stroke-dasharray="3.44"/>
<path d="M352.582 104.747L350 97L359.468 97.8607L352.582 104.747Z" fill="#6D82FF"/>
<path d="M673.5 75.5L666 73.092L672.933 68.5882L673.5 75.5Z" fill="#6D82FF"/>
<line x1="1029.43" y1="26.5696" x2="1164.57" y2="26.5696" stroke="#A9B5FF" stroke-width="0.860727" stroke-linecap="round"/>
<line x1="1115.43" y1="4.43036" x2="1115.43" y2="61.5696" stroke="#A9B5FF" stroke-width="0.860727" stroke-linecap="round"/>
<path d="M237.827 29.0248H241.416V30H236.464V29.11L239.929 24.234H236.464V23.2588H241.312V24.1393L237.827 29.0248ZM242.489 30V23.2588H243.711V30H242.489ZM245.171 23.2588H248.096C248.822 23.2588 249.387 23.4355 249.791 23.789C250.195 24.1362 250.397 24.6127 250.397 25.2187C250.397 25.8246 250.192 26.3043 249.782 26.6578C249.378 27.0113 248.816 27.188 248.096 27.188H246.392V30H245.171V23.2588ZM247.954 26.2412C248.377 26.2412 248.696 26.156 248.911 25.9856C249.131 25.8088 249.242 25.5564 249.242 25.2281C249.242 24.8936 249.135 24.6411 248.92 24.4707C248.705 24.294 248.384 24.2056 247.954 24.2056H246.392V26.2412H247.954Z" fill="#5A70FD"/>
<rect x="264" y="9" width="8" height="20" fill="white"/>
<line x1="268.25" y1="9" x2="268.25" y2="29" stroke="#BBC5FF" stroke-width="0.5"/>
<line x1="264" y1="20.75" x2="272" y2="20.75" stroke="#BBC5FF" stroke-width="0.5"/>
<line x1="264" y1="23.75" x2="272" y2="23.75" stroke="#BBC5FF" stroke-width="0.5"/>
<line x1="264" y1="26.75" x2="272" y2="26.75" stroke="#BBC5FF" stroke-width="0.5"/>
<rect x="920" y="69" width="15" height="10" fill="#BBC6FF"/>
<path d="M928 79C928 79.2012 928 80.929 928 82.9997C928 86.3134 930.686 89 934 89H944.5" stroke="#A9B5FF"/>
<rect x="945" y="68" width="47" height="39" fill="#BBC6FF"/>
<rect x="950" y="74" width="37" height="16" fill="white"/>
<circle cx="979.5" cy="76.5" r="1.5" fill="#E1E8FE"/>
<path d="M961.248 76L950 90H987L978.705 81.5034L970.454 86.8138L961.248 76Z" fill="#E1E8FE"/>
<rect x="950" y="93" width="37" height="2" fill="white"/>
<rect x="950" y="98" width="37" height="2" fill="white"/>
<rect x="948.25" y="71.25" width="40.5" height="33.5" stroke="white" stroke-width="0.5"/>
<path d="M1034.18 51L1025 123.321H1028.62C1030.28 123.321 1033.07 113.029 1033.34 113.864C1033.57 114.531 1035.48 118.592 1036.4 120.539L1036 123H1071.9C1059.38 109.927 1055.88 90.2202 1053.93 84.6571C1052.15 81.7642 1047.44 61.0137 1045.31 51L1043.08 57.6758H1036.96L1035.29 51H1034.18Z" fill="#BEC7FF"/>
<circle cx="1036.96" cy="64.0734" r="0.834473" fill="#C4C4C4"/>
<circle cx="1044.19" cy="64.0734" r="0.834473" fill="white"/>
<path d="M1042.25 67.6895H1038.63L1040.58 69.3584L1042.25 67.6895Z" fill="white"/>
<path d="M1036.34 120.398C1034.56 118.617 1033.64 114.891 1033.27 113.5H1037.5C1037.31 114.705 1037.01 118.172 1036.34 120.398Z" fill="#A9B5FF"/>
<path d="M1049.38 99.3078C1049.64 106.677 1056.13 111.257 1063.5 111L1055 88.5C1051.72 91.0397 1049.22 94.8418 1049.38 99.3078Z" fill="#D8DDFF"/>
<path d="M1034.46 51L1032.23 67.9676C1040.02 67.9676 1041.41 60.921 1041.13 57.3976H1036.68L1035.57 51H1034.46Z" fill="#A9B5FF"/>
<circle cx="1036.83" cy="63.8345" r="0.834473" fill="white"/>
<path d="M1054.48 79.9284H1028.89L1028.34 84.9352H1055.88L1054.48 79.9284Z" fill="#D8DDFF"/>
<rect x="1043.36" y="78.8158" width="2.22526" height="7.2321" fill="#A9B5FF"/>
<path d="M1064.62 76.5905C1067.74 77.4806 1071.48 82.5245 1072.96 84.9352L1068.24 88.2731C1066.38 85.8624 1062.62 80.8185 1062.39 79.9284C1062.12 78.8158 1062.12 76.5905 1064.62 76.5905Z" fill="#D8DDFF"/>
<path d="M1064.5 114.698C1075.18 106.91 1070.99 93.0946 1067.56 87.1605C1068.11 87.1605 1069.89 86.6598 1072.56 84.6571C1082.36 102.237 1073.68 114.791 1068.11 118.87C1067.74 118.5 1066.5 117.146 1064.5 114.698Z" fill="#BEC7FF"/>
<path d="M1044.54 116C1043.4 119.36 1041.04 122.067 1040 123H1051C1050.2 121.289 1047.8 117.493 1044.54 116Z" fill="#A9B5FF"/>
</svg>
