<svg width="115" height="83" viewBox="0 0 115 83" fill="none" xmlns="http://www.w3.org/2000/svg"><line x1="6.45206" y1="77" x2="17.0959" y2="77" stroke="#5A5B64" stroke-width="2" stroke-linecap="round"></line><path d="M101.74 77.5137H108.548" stroke="#5A5B64" stroke-width="2" stroke-linecap="round"></path><line x1="22.9863" y1="77" x2="95.8767" y2="77" stroke="#5A5B64" stroke-width="2" stroke-linecap="round"></line><path d="M33.6575 77H76.4521C78.6007 77 80.3425 75.2582 80.3425 73.1096V41.5V19.8573C80.3425 18.7736 79.8904 17.739 79.0952 17.0027L68.331 7.03578C67.6118 6.36991 66.6679 6 65.6878 6H57.851H48.4897H39.1284H33.6575C31.5089 6 29.7671 7.7418 29.7671 9.89041V73.1096C29.7671 75.2582 31.5089 77 33.6575 77Z" fill="white" stroke="#5A5B64" stroke-width="2"></path><path d="M95.4626 32.7466C98.1858 25.3548 96.5973 18.968 95.4626 16.6986L100.423 17.9387C101.982 18.3286 102.933 19.9061 102.548 21.4668L95.4626 50.2534C94.3279 47.4977 92.7393 40.1384 95.4626 32.7466Z" fill="#C1E1FF"></path><path d="M83.7466 13.7808L99.8569 17.7102C101.963 18.2239 103.243 20.3601 102.703 22.4597L92.0194 63.96C91.4805 66.0535 89.3382 67.3062 87.2494 66.7492L83.7466 65.8151" stroke="#5A5B64" stroke-width="2" stroke-linecap="round"></path><path d="M22.4726 68.7329C22.8616 48.5027 15.1781 31.4498 11.2877 25.4521L9.34247 25.9384L17.6096 69.7055L22.4726 68.7329Z" fill="#C1E1FF"></path><path d="M25.869 19.9901L13.2254 21.9365C11.0871 22.2657 9.6281 24.2762 9.97819 26.4112L16.4998 66.1821C16.8629 68.3965 19.019 69.8454 21.2064 69.345L23.9957 68.7069" stroke="#5A5B64" stroke-width="2" stroke-linecap="round"></path><path d="M30.74 72.137H79.3699V73.1096C79.3699 74.7211 78.0635 76.0274 76.452 76.0274H33.6577C32.0462 76.0274 30.7398 74.7209 30.7399 73.1094L30.74 72.137Z" fill="#C1E1FF"></path><line x1="36.6028" y1="51.6849" x2="61.8356" y2="51.6849" stroke="#5A5B64" stroke-width="2" stroke-linecap="round"></line><path d="M36.5753 57.0616H54.0822" stroke="#5A5B64" stroke-width="2" stroke-linecap="round"></path><path d="M36.5753 67.274H54.0822" stroke="#435BFD" stroke-width="2" stroke-linecap="round"></path><path d="M69.5771 36C71.7537 26.55 63.3375 20.85 60 19.8V18.9L62.1766 18H64.7885L66.5298 19.35L69.5771 22.95L72.6244 25.65L73.9303 30.15C74.2205 31.2 73.7562 34.92 69.5771 36Z" fill="#C1E1FF"></path><path d="M61 32.3636L57 32.3636L57 41L53 41L53 32.3636L49 32.3636L55.2222 26L61 32.3636Z" fill="#445BFD"></path><path d="M47 24H40.5833C39.0556 24.1429 36 25.5429 36 30C36 34.4571 40.8889 35.8571 43.3333 36" stroke="#5A5B64" stroke-width="2" stroke-linecap="round"></path><path d="M42 23.8679C42.1128 22.5835 42.889 20.3056 45.0172 19.3398C46.3071 18.7544 47.6437 18.0978 48.382 16.889C49.7463 14.6552 51.3706 13 55.1276 13C59.9411 13 63.4418 17.0755 63.4418 18.434M58.6283 20.6981C60.1541 19.2627 63.9223 17.2813 67.2987 20.2057C67.6551 20.5144 67.9064 20.9226 68.1285 21.3386C68.7621 22.5252 69.9712 24.246 71.6447 25.378C72.5009 25.9571 73.335 26.656 73.6158 27.6507C74.8331 31.9625 73.1166 35.9577 69.0487 36.9244C68.8139 36.9801 68.5712 37 68.3298 37C67.1313 37 66.333 37 66.0673 37" stroke="#5A5B64" stroke-width="2" stroke-linecap="round"></path></svg>