<?xml version="1.0" standalone="no"?><!DOCTYPE svg PUBLIC "-//W3C//DTD SVG 1.1//EN" "http://www.w3.org/Graphics/SVG/1.1/DTD/svg11.dtd"><svg t="1660027404217" class="icon" viewBox="0 0 1024 1024" version="1.1" xmlns="http://www.w3.org/2000/svg" p-id="2711" width="48" height="48" xmlns:xlink="http://www.w3.org/1999/xlink"><defs><style type="text/css">@font-face { font-family: feedback-iconfont; src: url("//at.alicdn.com/t/font_1031158_u69w8yhxdu.woff2?t=1630033759944") format("woff2"), url("//at.alicdn.com/t/font_1031158_u69w8yhxdu.woff?t=1630033759944") format("woff"), url("//at.alicdn.com/t/font_1031158_u69w8yhxdu.ttf?t=1630033759944") format("truetype"); }
</style></defs><path d="M561.7 756.5l-195.9-58.7-53.1-170.7 225.1-216.8z" fill="#FFBFFD" p-id="2712"></path><path d="M558.2 114l-20.4 196.3L369 394.6l71-166.8z" fill="#FB7DC9" p-id="2713"></path><path d="M440 227.8l-71 166.8-212.5 106.1z" fill="#FF98E3" p-id="2714"></path><path d="M369 394.6l-56.3 132.5-156.2-26.4z" fill="#FB7DC9" p-id="2715"></path><path d="M537.8 310.3L312.7 527.1 369 394.6z" fill="#FF98E3" p-id="2716"></path><path d="M715.9 326.6l-2.1 101.3-176-117.6L558.2 114zM867.5 530.7l-156.2 13.1 2.5-115.8z" fill="#FA56A2" p-id="2717"></path><path d="M867.5 530.7L713.8 428v-0.1l2.1-101.3zM713.8 427.9v0.1l-2.5 115.8-173.5-233.5z" fill="#FB7DC9" p-id="2718"></path><path d="M365.8 697.8L275 612.3l37.7-85.2z" fill="#FF98E3" p-id="2719"></path><path d="M312.7 527.1L275 612.3 156.5 500.7z" fill="#FA56A2" p-id="2720"></path><path d="M275 612.3l-49.2 111-69.3-222.6z" fill="#FF98E3" p-id="2721"></path><path d="M365.8 697.8L251.2 805.2l-25.4-81.9 49.2-111zM600.6 910l-128-115.7 89.1-37.8z" fill="#FB7DC9" p-id="2722"></path><path d="M472.6 794.3l-106.8 45.2-114.6-34.3 114.6-107.4z" fill="#FA56A2" p-id="2723"></path><path d="M561.7 756.5l-89.1 37.8-106.8-96.5zM600.6 910l-234.8-70.5 106.8-45.2z" fill="#FF98E3" p-id="2724"></path><path d="M867.5 530.7l-69.3 98.5-134.6 72.4 47.7-157.8z" fill="#FF3390" p-id="2725"></path><path d="M663.6 701.6l-63 208.4-38.9-153.5z" fill="#FA56A2" p-id="2726"></path><path d="M798.2 629.2L600.6 910l63-208.4zM711.3 543.8l-47.7 157.8-101.9 54.9z" fill="#FB7DC9" p-id="2727"></path><path d="M711.3 543.8L561.7 756.5l-23.9-446.2z" fill="#FF98E3" p-id="2728"></path><path d="M764.5 429.1c-20.7-4.7-36.9-21-41.6-41.6-0.4-1.6-2.4-1.6-2.8 0-4.7 20.7-21 36.9-41.6 41.6-1.6 0.4-1.6 2.4 0 2.8 20.7 4.7 36.9 21 41.6 41.6 0.4 1.6 2.4 1.6 2.8 0 4.7-20.7 21-36.9 41.6-41.6 1.5-0.4 1.5-2.5 0-2.8zM647.4 393.1c-16.2-4.2-29-17-33.2-33.2-0.4-1.6-2.5-1.6-3 0-4.2 16.2-17 29-33.2 33.2-1.6 0.4-1.6 2.5 0 3 16.2 4.2 29 17 33.2 33.2 0.4 1.6 2.5 1.6 3 0 4.2-16.2 17-29 33.2-33.2 1.6-0.5 1.6-2.6 0-3z" fill="#FFFFFF" p-id="2729"></path></svg>