<?xml version="1.0" standalone="no"?><!DOCTYPE svg PUBLIC "-//W3C//DTD SVG 1.1//EN" "http://www.w3.org/Graphics/SVG/1.1/DTD/svg11.dtd"><svg t="1659793132909" class="icon" viewBox="0 0 1024 1024" version="1.1" xmlns="http://www.w3.org/2000/svg" p-id="5568" xmlns:xlink="http://www.w3.org/1999/xlink" width="48" height="48"><defs><style type="text/css">@font-face { font-family: feedback-iconfont; src: url("//at.alicdn.com/t/font_1031158_u69w8yhxdu.woff2?t=1630033759944") format("woff2"), url("//at.alicdn.com/t/font_1031158_u69w8yhxdu.woff?t=1630033759944") format("woff"), url("//at.alicdn.com/t/font_1031158_u69w8yhxdu.ttf?t=1630033759944") format("truetype"); }
</style></defs><path d="M512 512m-512 0a512 512 0 1 0 1024 0 512 512 0 1 0-1024 0Z" fill="#FF9784" opacity=".15" p-id="5569"></path><path d="M471.249455 676.596364h-250.181819a23.272727 23.272727 0 0 1-23.272727-23.272728V325.818182a23.272727 23.272727 0 0 1 23.272727-23.272727h442.612364a23.272727 23.272727 0 0 1 23.272727 23.272727v65.524363h-192.430545a23.272727 23.272727 0 0 0-23.272727 23.272728v261.969454z m-224.581819-216.96a175.290182 175.290182 0 0 0-31.802181 3.188363v172.392728a24.250182 24.250182 0 0 0 23.656727 24.354909h223.255273v-86.784c-4.421818 1.815273-8.773818 3.851636-12.928 6.039272a9.786182 9.786182 0 0 1-6.981819 2.897455 18.618182 18.618182 0 0 1-14.661818-9.902546 201.309091 201.309091 0 0 0-180.538182-112.186181z m48.616728-88.552728a37.236364 37.236364 0 1 0 37.236363 37.236364 37.317818 37.317818 0 0 0-37.236363-37.236364z" fill="#FC7D5D" opacity=".8" p-id="5570"></path><path d="M805.201455 748.532364h-293.632a23.272727 23.272727 0 0 1-23.272728-23.272728v-293.655272a23.272727 23.272727 0 0 1 23.272728-23.272728h293.632a23.272727 23.272727 0 0 1 23.272727 23.272728v293.655272a23.272727 23.272727 0 0 1-23.272727 23.272728z m-245.92291-268.218182a11.054545 11.054545 0 0 0-11.042909 11.054545v25.751273a11.054545 11.054545 0 0 0 11.042909 11.054545h58.88a11.042909 11.042909 0 0 1 11.031273 11.04291v126.347636a11.019636 11.019636 0 0 0 10.565818 11.042909h36.456728a11.019636 11.019636 0 0 0 10.577454-11.042909v-126.359273a11.054545 11.054545 0 0 1 11.042909-11.042909h59.648a11.054545 11.054545 0 0 0 11.042909-11.054545v-25.751273a11.054545 11.054545 0 0 0-11.042909-11.054546z" fill="#FC7D5D" p-id="5571"></path></svg>