<?xml version="1.0" standalone="no"?><!DOCTYPE svg PUBLIC "-//W3C//DTD SVG 1.1//EN" "http://www.w3.org/Graphics/SVG/1.1/DTD/svg11.dtd"><svg t="1666399030677" class="icon" viewBox="0 0 1024 1024" version="1.1" xmlns="http://www.w3.org/2000/svg" p-id="3254" width="48" height="48" xmlns:xlink="http://www.w3.org/1999/xlink"><path d="M544 202.666667V405.333333h-64V202.666667a32 32 0 0 1 64 0zM653.226667 560.64l-102.4 78.933333a64.213333 64.213333 0 0 1-78.08 0l-101.973334-78.506666a32.085333 32.085333 0 1 1 39.253334-50.773334l69.973333 54.186667V405.333333h64v158.293334l69.973333-53.76a32.512 32.512 0 0 1 45.226667 5.973333 31.957333 31.957333 0 0 1-5.973333 44.8z" fill="#030835" p-id="3255"></path><path d="M938.666667 618.666667v21.333333a213.418667 213.418667 0 0 1-213.333334 213.333333H298.666667a213.12 213.12 0 0 1-213.333334-213.333333v-21.333333a213.12 213.12 0 0 1 213.333334-213.333334h181.333333v159.146667l-69.973333-54.186667a32.085333 32.085333 0 1 0-39.253334 50.773334l101.973334 78.506666a64.213333 64.213333 0 0 0 78.08 0l102.4-78.933333a31.957333 31.957333 0 0 0 5.973333-44.8 32.512 32.512 0 0 0-45.226667-5.973333l-69.973333 53.76V405.333333H725.333333a213.418667 213.418667 0 0 1 213.333334 213.333334z" fill="#92fe9d" p-id="3256"></path></svg>