<?xml version="1.0" standalone="no"?><!DOCTYPE svg PUBLIC "-//W3C//DTD SVG 1.1//EN" "http://www.w3.org/Graphics/SVG/1.1/DTD/svg11.dtd"><svg t="1659332089029" class="icon" viewBox="0 0 1024 1024" version="1.1" xmlns="http://www.w3.org/2000/svg" p-id="3307" xmlns:xlink="http://www.w3.org/1999/xlink" width="48" height="48"><defs><style type="text/css">@font-face { font-family: feedback-iconfont; src: url("//at.alicdn.com/t/font_1031158_u69w8yhxdu.woff2?t=1630033759944") format("woff2"), url("//at.alicdn.com/t/font_1031158_u69w8yhxdu.woff?t=1630033759944") format("woff"), url("//at.alicdn.com/t/font_1031158_u69w8yhxdu.ttf?t=1630033759944") format("truetype"); }
</style></defs><path d="M773.9392 301.8752m-200.0384 0a200.0384 200.0384 0 1 0 400.0768 0 200.0384 200.0384 0 1 0-400.0768 0Z" fill="#60A3FB" p-id="3308"></path><path d="M924.4672 706.2528a24.32 24.32 0 0 1-24.2688 24.2688h-145.7664a24.3712 24.3712 0 0 0-24.2688 24.32 24.2688 24.2688 0 0 0 24.2688 24.2688h48.5888a24.32 24.32 0 0 1 24.2688 24.32 24.32 24.32 0 0 1-24.2688 24.2688h-64.512A388.7616 388.7616 0 0 1 122.88 390.4512h-48.5888a24.32 24.32 0 0 1 0-48.5888h97.28a24.2688 24.2688 0 0 0 6.8096-47.5648l0.768-0.9728H122.88a24.32 24.32 0 1 1 0-48.5888h101.632a388.7616 388.7616 0 0 1 619.52 437.248h56.32a24.32 24.32 0 0 1 24.1152 24.2688z" fill="#8F48FC" p-id="3309"></path><path d="M672.6656 443.0336l-36.864 21.248A3.9936 3.9936 0 0 1 629.76 460.8a61.44 61.44 0 0 0-61.44-61.44H332.8a61.44 61.44 0 0 0-61.44 61.44v158.72a61.44 61.44 0 0 0 61.44 61.44h235.52a61.44 61.44 0 0 0 61.44-61.44 4.0448 4.0448 0 0 1 6.0416-3.4816l36.864 21.2992a26.0096 26.0096 0 0 0 39.0144-22.528V465.5104a25.9584 25.9584 0 0 0-39.0144-22.4768zM353.28 504.064a30.72 30.72 0 1 1 30.72-30.72 30.72 30.72 0 0 1-30.72 30.72z" fill="#FFFFFF" p-id="3310"></path></svg>