<?xml version="1.0" standalone="no"?><!DOCTYPE svg PUBLIC "-//W3C//DTD SVG 1.1//EN" "http://www.w3.org/Graphics/SVG/1.1/DTD/svg11.dtd"><svg t="1655214459750" class="icon" viewBox="0 0 1024 1024" version="1.1" xmlns="http://www.w3.org/2000/svg" p-id="6078" xmlns:xlink="http://www.w3.org/1999/xlink" width="48" height="48"><defs><style type="text/css">@font-face { font-family: feedback-iconfont; src: url("//at.alicdn.com/t/font_1031158_u69w8yhxdu.woff2?t=1630033759944") format("woff2"), url("//at.alicdn.com/t/font_1031158_u69w8yhxdu.woff?t=1630033759944") format("woff"), url("//at.alicdn.com/t/font_1031158_u69w8yhxdu.ttf?t=1630033759944") format("truetype"); }
</style></defs><path d="M504.3712 519.8336m-450.816 0a450.816 450.816 0 1 0 901.632 0 450.816 450.816 0 1 0-901.632 0Z" fill="#FBE1FF" p-id="6079"></path><path d="M504.064 177.8688c-183.1936 0-331.7248 148.5312-331.7248 331.7248s148.5312 331.7248 331.7248 331.7248 331.7248-148.5312 331.7248-331.7248-148.5312-331.7248-331.7248-331.7248z m128.4608 394.9056H475.4944a33.3312 33.3312 0 0 1-33.3312-33.3312v-182.272a33.3312 33.3312 0 0 1 66.6624 0v148.9408h123.6992a33.3312 33.3312 0 0 1 33.3312 33.3312c0 18.432-14.8992 33.3312-33.3312 33.3312z" fill="#BD50D3" p-id="6080"></path><path d="M759.808 364.6976c0-25.088-2.1504-49.7152-6.2976-73.6256-60.8256-69.376-149.9648-113.2032-249.4464-113.2032-183.1936 0-331.7248 148.5312-331.7248 331.7248 0 121.4976 65.3824 227.6864 162.816 285.4912 235.0592-3.072 424.6528-194.56 424.6528-430.3872z m-317.5936-7.4752c0-18.3808 14.8992-33.3312 33.3312-33.3312s33.3312 14.8992 33.3312 33.3312v148.9408h123.6992a33.3312 33.3312 0 0 1 0 66.6624H475.4944a33.3312 33.3312 0 0 1-33.3312-33.3312v-182.272z" fill="#C65EDB" p-id="6081"></path><path d="M172.3392 509.5936c0 47.104 9.8816 91.904 27.5968 132.5056 3.8912 0.1024 7.7824 0.1536 11.6736 0.1536 90.6752 0 174.848-28.0576 244.224-75.9808a33.2288 33.2288 0 0 1-13.6192-26.8288v-182.272c0-18.3808 14.8992-33.3312 33.3312-33.3312s33.3312 14.8992 33.3312 33.3312v148.9408h16.8448c72.192-77.0048 116.3776-180.48 116.3776-294.3488 0-1.28-0.0512-2.6112-0.0512-3.8912a330.45504 330.45504 0 0 0-137.984-30.0544c-183.1936 0.0512-331.7248 148.5824-331.7248 331.776z" fill="#CA6EE0" p-id="6082"></path><path d="M173.4144 484.2496c165.0688-27.0336 298.5472-147.8656 343.808-306.0224-4.352-0.1536-8.7552-0.3072-13.1584-0.3072-174.6432-0.0512-317.696 135.0144-330.6496 306.3296z" fill="#D786EA" p-id="6083"></path></svg>