<?xml version="1.0" standalone="no"?><!DOCTYPE svg PUBLIC "-//W3C//DTD SVG 1.1//EN" "http://www.w3.org/Graphics/SVG/1.1/DTD/svg11.dtd"><svg t="1685862436534" class="icon" viewBox="0 0 1024 1024" version="1.1" xmlns="http://www.w3.org/2000/svg" p-id="2438" xmlns:xlink="http://www.w3.org/1999/xlink" width="48" height="48"><path d="M512 42.666667C251.733333 42.666667 42.666667 251.733333 42.666667 512s209.066667 469.333333 469.333333 469.333333 469.333333-209.066667 469.333333-469.333333S772.266667 42.666667 512 42.666667z m-72.533333 110.933333c23.466667-4.266667 46.933333-6.4 72.533333-6.4 27.733333 0 53.333333 4.266667 78.933333 8.533333l-6.4 2.133334c25.6 74.666667 42.666667 145.066667 51.2 213.333333-91.733333 12.8-174.933333 10.666667-243.2 0 8.533333-68.266667 25.6-140.8 51.2-215.466667l-4.266666-2.133333z m-285.866667 426.666667c-4.266667-21.333333-6.4-44.8-6.4-68.266667 0-40.533333 8.533333-78.933333 21.333333-117.333333 42.666667 21.333333 83.2 36.266667 121.6 49.066666-4.266667 55.466667-4.266667 115.2 4.266667 179.2-87.466667-19.2-140.8-42.666667-140.8-42.666666z m40.533333 108.8c40.533333 14.933333 78.933333 25.6 115.2 34.133333 8.533333 36.266667 17.066667 72.533333 29.866667 108.8-59.733333-32-110.933333-81.066667-145.066667-142.933333z m106.666667-334.933334c-53.333333-14.933333-89.6-29.866667-98.133333-34.133333 34.133333-55.466667 83.2-100.266667 140.8-130.133333-14.933333 40.533333-32 96-42.666667 164.266666z m283.733333 516.266667c-23.466667 4.266667-46.933333 6.4-72.533333 6.4-23.466667 0-44.8-2.133333-66.133333-6.4-2.133333-4.266667-21.333333-51.2-38.4-130.133333 78.933333 8.533333 149.333333 6.4 213.333333 0-12.8 70.4-32 117.333333-36.266667 130.133333zM637.866667 640c-91.733333 10.666667-174.933333 8.533333-245.333334 0-6.4-51.2-8.533333-108.8-6.4-172.8 98.133333 17.066667 185.6 12.8 258.133334 0 2.133333 61.866667 0 121.6-6.4 172.8z m185.6-317.866667c-32 12.8-64 21.333333-93.866667 29.866667-10.666667-66.133333-27.733333-119.466667-42.666667-160 55.466667 32 102.4 76.8 136.533334 130.133333z m-132.266667 505.6c12.8-36.266667 21.333333-72.533333 29.866667-106.666666 44.8-10.666667 81.066667-23.466667 110.933333-34.133334-34.133333 59.733333-83.2 108.8-140.8 140.8z m177.066667-245.333333c-44.8 17.066667-89.6 29.866667-132.266667 40.533333 6.4-64 6.4-123.733333 2.133333-179.2 66.133333-21.333333 108.8-44.8 117.333334-49.066666 12.8 36.266667 21.333333 76.8 21.333333 117.333333 0 25.6-2.133333 49.066667-8.533333 70.4z" fill="#F15533" p-id="2439"></path></svg>