<?xml version="1.0" standalone="no"?><!DOCTYPE svg PUBLIC "-//W3C//DTD SVG 1.1//EN" "http://www.w3.org/Graphics/SVG/1.1/DTD/svg11.dtd"><svg t="1655731769608" class="icon" viewBox="0 0 1024 1024" version="1.1" xmlns="http://www.w3.org/2000/svg" p-id="5262" xmlns:xlink="http://www.w3.org/1999/xlink" width="48" height="48"><defs><style type="text/css">@font-face { font-family: feedback-iconfont; src: url("//at.alicdn.com/t/font_1031158_u69w8yhxdu.woff2?t=1630033759944") format("woff2"), url("//at.alicdn.com/t/font_1031158_u69w8yhxdu.woff?t=1630033759944") format("woff"), url("//at.alicdn.com/t/font_1031158_u69w8yhxdu.ttf?t=1630033759944") format("truetype"); }
</style></defs><path d="M51.2 51.2m153.6 0l609.28 0q153.6 0 153.6 153.6l0 609.28q0 153.6-153.6 153.6l-609.28 0q-153.6 0-153.6-153.6l0-609.28q0-153.6 153.6-153.6Z" fill="#F19149" opacity=".2" p-id="5263"></path><path d="M786.82112 199.68H237.17888A98.93888 98.93888 0 0 0 138.24 298.61888v421.64224A98.93888 98.93888 0 0 0 237.17888 819.2h549.64224A98.93888 98.93888 0 0 0 885.76 720.26112V298.61888A98.93376 98.93376 0 0 0 786.82112 199.68zM333.11744 344.13568a44.60032 44.60032 0 1 1-44.60032 44.5952 44.60032 44.60032 0 0 1 44.60032-44.5952z m464.384 237.056a29.08672 29.08672 0 0 1-40.96-3.69664l-61.3888-73.5744a20.38272 20.38272 0 0 0-32.256 1.25952l-81.8432 115.29216a78.5664 78.5664 0 0 1-116.736 12.8l-43.25376-39.10656a20.38784 20.38784 0 0 0-28.86144 1.536l-96.256 107.63264a29.08672 29.08672 0 0 1-43.35616-38.784l96.256-107.62752a78.55616 78.55616 0 0 1 111.23712-5.90336l43.25376 39.10656a20.37248 20.37248 0 0 0 30.29504-3.31776L615.424 471.552a78.56128 78.56128 0 0 1 124.38016-4.85376l61.38368 73.56928a29.0816 29.0816 0 0 1-3.6864 40.94976z" fill="#F19149" p-id="5264"></path></svg>