<?xml version="1.0" standalone="no"?><!DOCTYPE svg PUBLIC "-//W3C//DTD SVG 1.1//EN" "http://www.w3.org/Graphics/SVG/1.1/DTD/svg11.dtd"><svg t="1666676436917" class="icon" viewBox="0 0 1024 1024" version="1.1" xmlns="http://www.w3.org/2000/svg" p-id="4536" xmlns:xlink="http://www.w3.org/1999/xlink" width="48" height="48"><path d="M501.76 337.92c20.48 0 40.96-10.24 51.2-20.48 15.36-15.36 20.48-35.84 20.48-51.2 0-20.48-10.24-46.08-25.6-56.32v15.36c0 20.48-10.24 35.84-25.6 46.08-15.36 10.24-35.84 10.24-51.2 0s-20.48-35.84-20.48-56.32V204.8c-15.36 15.36-20.48 35.84-20.48 56.32 0 20.48 5.12 40.96 20.48 51.2 15.36 15.36 30.72 25.6 51.2 25.6z" fill="#FFA54F" p-id="4537"></path><path d="M501.76 240.64c25.6 0 51.2-25.6 46.08-51.2 0-25.6-20.48-51.2-51.2-51.2-25.6 0-51.2 20.48-51.2 51.2 5.12 25.6 25.6 51.2 56.32 51.2zM153.6 691.2l117.76 46.08c-10.24-20.48-46.08-317.44-46.08-317.44L153.6 691.2zM634.88 849.92l10.24-117.76-266.24 25.6z" fill="#FFA54F" p-id="4538"></path><path d="M716.8 209.92l-128 20.48c10.24 15.36 10.24 30.72 10.24 46.08 0 35.84-20.48 66.56-46.08 81.92-30.72 15.36-66.56 15.36-97.28 0-30.72-15.36-46.08-51.2-46.08-81.92V256l-158.72 25.6c5.12 153.6 76.8 460.8 76.8 460.8l496.64-87.04C783.36 614.4 716.8 209.92 716.8 209.92z" fill="#FFA54F" p-id="4539"></path><path d="M353.28 481.28c-10.24 0-20.48-5.12-20.48-20.48 0-10.24 5.12-25.6 20.48-25.6l194.56-25.6c10.24 0 25.6 5.12 25.6 20.48 0 10.24-5.12 25.6-20.48 25.6l-199.68 25.6c5.12 0 5.12 0 0 0zM378.88 558.08c-10.24 0-20.48-10.24-20.48-20.48s5.12-25.6 20.48-25.6l317.44-40.96c10.24 0 25.6 5.12 25.6 20.48 0 10.24-5.12 25.6-20.48 25.6l-322.56 40.96zM394.24 640c-10.24 0-20.48-10.24-20.48-20.48s5.12-25.6 20.48-25.6l245.76-35.84c15.36 0 25.6 5.12 25.6 20.48 0 10.24-5.12 25.6-20.48 25.6l-250.88 35.84c5.12 0 0 0 0 0z" fill="#FF0000" p-id="4540"></path></svg>