<?xml version="1.0" standalone="no"?><!DOCTYPE svg PUBLIC "-//W3C//DTD SVG 1.1//EN" "http://www.w3.org/Graphics/SVG/1.1/DTD/svg11.dtd"><svg t="1661349307354" class="icon" viewBox="0 0 1024 1024" version="1.1" xmlns="http://www.w3.org/2000/svg" p-id="3917" xmlns:xlink="http://www.w3.org/1999/xlink" width="48" height="48"><defs><style type="text/css">@font-face { font-family: feedback-iconfont; src: url("//at.alicdn.com/t/font_1031158_u69w8yhxdu.woff2?t=1630033759944") format("woff2"), url("//at.alicdn.com/t/font_1031158_u69w8yhxdu.woff?t=1630033759944") format("woff"), url("//at.alicdn.com/t/font_1031158_u69w8yhxdu.ttf?t=1630033759944") format("truetype"); }
</style></defs><path d="M352 196h400c44.184 0 80 35.818 80 80v320c0 44.184-35.816 80-80 80H352c-44.182 0-80-35.816-80-80V276c0-44.182 35.818-80 80-80z" fill="#ffc2c2" p-id="3918"></path><path d="M752 676H352c-44.112 0-80-35.888-80-80V276c0-44.112 35.888-80 80-80h400c44.112 0 80 35.888 80 80v320c0 44.112-35.888 80-80 80zM352 256c-11.028 0-20 8.972-20 20v320c0 11.028 8.972 20 20 20h400c11.028 0 20-8.972 20-20V276c0-11.028-8.972-20-20-20H352z" fill="#ffc2c2" p-id="3919"></path><path d="M272 356h400c44.184 0 80 35.818 80 80v320c0 44.184-35.816 80-80 80H272c-44.182 0-80-35.816-80-80V436c0-44.182 35.818-80 80-80z" fill="#ff3636" p-id="3920"></path><path d="M672 836H272c-44.112 0-80-35.888-80-80V436c0-44.112 35.888-80 80-80h400c44.112 0 80 35.888 80 80v320c0 44.112-35.888 80-80 80zM272 416c-11.028 0-20 8.972-20 20v320c0 11.028 8.972 20 20 20h400c11.028 0 20-8.972 20-20V436c0-11.028-8.972-20-20-20H272z" fill="#ff3636" p-id="3921"></path><path d="M412.978 705.002c-6.294 0-12.64-1.972-18.05-6.056-13.224-9.98-15.854-28.792-5.874-42.018l120-159c9.978-13.222 28.794-15.854 42.018-5.874s15.854 28.792 5.874 42.018l-120 159a29.954 29.954 0 0 1-23.968 11.93z" fill="#ffc2c2" p-id="3922"></path><path d="M286 626a29.906 29.906 0 0 1-21.212-8.786c-11.716-11.716-11.716-30.712 0-42.428l50.912-50.91c11.714-11.716 30.71-11.716 42.426 0 11.714 11.714 11.714 30.71 0 42.426l-50.912 50.912A29.906 29.906 0 0 1 286 626z" fill="#ffc2c2" p-id="3923"></path><path d="M336.912 676.912a29.9 29.9 0 0 1-21.212-8.788l-50.912-50.91c-11.716-11.716-11.716-30.712 0-42.428 11.716-11.716 30.71-11.716 42.426 0l50.912 50.912c11.714 11.716 11.714 30.712 0 42.426a29.91 29.91 0 0 1-21.214 8.788z" fill="#ffc2c2" p-id="3924"></path><path d="M660 626a29.914 29.914 0 0 1-21.214-8.788l-50.91-50.912c-11.718-11.714-11.718-30.708 0-42.426 11.714-11.714 30.71-11.714 42.426 0l50.912 50.912c11.716 11.714 11.716 30.71 0 42.426A29.914 29.914 0 0 1 660 626z" fill="#ffc2c2" p-id="3925"></path><path d="M609.088 676.91a29.9 29.9 0 0 1-21.212-8.788c-11.718-11.718-11.718-30.71 0-42.426l50.91-50.91c11.718-11.716 30.714-11.716 42.428 0 11.716 11.716 11.716 30.71 0 42.426l-50.914 50.91a29.9 29.9 0 0 1-21.212 8.788z" fill="#ffc2c2" p-id="3926"></path></svg>