<?xml version="1.0" standalone="no"?><!DOCTYPE svg PUBLIC "-//W3C//DTD SVG 1.1//EN" "http://www.w3.org/Graphics/SVG/1.1/DTD/svg11.dtd"><svg t="1659793316563" class="icon" viewBox="0 0 1024 1024" version="1.1" xmlns="http://www.w3.org/2000/svg" p-id="6662" xmlns:xlink="http://www.w3.org/1999/xlink" width="48" height="48"><defs><style type="text/css">@font-face { font-family: feedback-iconfont; src: url("//at.alicdn.com/t/font_1031158_u69w8yhxdu.woff2?t=1630033759944") format("woff2"), url("//at.alicdn.com/t/font_1031158_u69w8yhxdu.woff?t=1630033759944") format("woff"), url("//at.alicdn.com/t/font_1031158_u69w8yhxdu.ttf?t=1630033759944") format("truetype"); }
</style></defs><path d="M874.666667 149.333333h64v725.333334h-64v64H149.333333v-64H85.333333V149.333333h64V85.333333h725.333334z" fill="#F7F7F7" p-id="6663"></path><path d="M787.477333 192H236.522667L192 341.333333h86.528l15.893333-64H448v469.333334h-128v85.333333h384v-85.333333h-128V277.333333h153.578667l15.893333 64H832l-44.522667-149.333333z" fill="#FFB13B" p-id="6664"></path><path d="M1002.666667 874.666667v128h-128v-128h128zM149.333333 938.666667v64H21.333333v-128h128v64zM149.333333 85.333333v64H21.333333V21.333333h128v64zM1002.666667 21.333333v128h-128V21.333333h128z" fill="#1676C4" p-id="6665"></path><path d="M896 42.666667h85.333333v85.333333h-85.333333zM42.666667 42.666667h85.333333v85.333333H42.666667zM896 896h85.333333v85.333333h-85.333333zM42.666667 896h85.333333v85.333333H42.666667z" fill="#00A6FF" p-id="6666"></path><path d="M1002.666667 0h-128a21.333333 21.333333 0 0 0-21.333334 21.333333v42.666667h-21.333333v42.666667h21.333333v42.666666a21.333333 21.333333 0 0 0 21.333334 21.333334h42.666666v21.333333h42.666667V170.666667h42.666667a21.333333 21.333333 0 0 0 21.333333-21.333334V21.333333a21.333333 21.333333 0 0 0-21.333333-21.333333z m-21.333334 128h-85.333333V42.666667h85.333333zM21.333333 170.666667h42.666667v21.333333h42.666667V170.666667h42.666666a21.333333 21.333333 0 0 0 21.333334-21.333334V106.666667h21.333333V64H170.666667V21.333333a21.333333 21.333333 0 0 0-21.333334-21.333333H21.333333a21.333333 21.333333 0 0 0-21.333333 21.333333v128a21.333333 21.333333 0 0 0 21.333333 21.333334z m21.333334-128h85.333333v85.333333H42.666667zM1002.666667 853.333333h-42.666667v-21.333333h-42.666667v21.333333h-42.666666a21.333333 21.333333 0 0 0-21.333334 21.333334v42.666666h-21.333333v42.666667h21.333333v42.666667a21.333333 21.333333 0 0 0 21.333334 21.333333h128a21.333333 21.333333 0 0 0 21.333333-21.333333v-128a21.333333 21.333333 0 0 0-21.333333-21.333334z m-21.333334 128h-85.333333v-85.333333h85.333333zM170.666667 874.666667a21.333333 21.333333 0 0 0-21.333334-21.333334H106.666667v-21.333333H64v21.333333H21.333333a21.333333 21.333333 0 0 0-21.333333 21.333334v128a21.333333 21.333333 0 0 0 21.333333 21.333333h128a21.333333 21.333333 0 0 0 21.333334-21.333333v-42.666667h21.333333v-42.666667H170.666667z m-42.666667 106.666666H42.666667v-85.333333h85.333333zM320 64h42.666667v42.666667h-42.666667zM234.666667 64h42.666666v42.666667h-42.666666zM746.666667 64h42.666666v42.666667h-42.666666zM661.333333 64h42.666667v42.666667h-42.666667zM405.333333 64h42.666667v42.666667h-42.666667zM576 64h42.666667v42.666667h-42.666667zM490.666667 64h42.666666v42.666667h-42.666666zM234.666667 917.333333h42.666666v42.666667h-42.666666zM320 917.333333h42.666667v42.666667h-42.666667zM405.333333 917.333333h42.666667v42.666667h-42.666667zM746.666667 917.333333h42.666666v42.666667h-42.666666zM490.666667 917.333333h42.666666v42.666667h-42.666666zM661.333333 917.333333h42.666667v42.666667h-42.666667zM576 917.333333h42.666667v42.666667h-42.666667zM917.333333 576h42.666667v42.666667h-42.666667zM917.333333 405.333333h42.666667v42.666667h-42.666667zM917.333333 234.666667h42.666667v42.666666h-42.666667zM917.333333 661.333333h42.666667v42.666667h-42.666667zM917.333333 490.666667h42.666667v42.666666h-42.666667zM917.333333 320h42.666667v42.666667h-42.666667zM917.333333 746.666667h42.666667v42.666666h-42.666667zM64 405.333333h42.666667v42.666667H64zM64 661.333333h42.666667v42.666667H64zM64 576h42.666667v42.666667H64zM64 320h42.666667v42.666667H64zM64 234.666667h42.666667v42.666666H64zM64 490.666667h42.666667v42.666666H64zM64 746.666667h42.666667v42.666666H64zM704 725.333333h-106.666667v-42.666666h-42.666666v64a21.333333 21.333333 0 0 0 21.333333 21.333333h106.666667v42.666667H341.333333v-42.666667h106.666667a21.333333 21.333333 0 0 0 21.333333-21.333333V469.333333h-42.666666v256h-106.666667a21.333333 21.333333 0 0 0-21.333333 21.333334v85.333333a21.333333 21.333333 0 0 0 21.333333 21.333333h384a21.333333 21.333333 0 0 0 21.333333-21.333333v-85.333333a21.333333 21.333333 0 0 0-21.333333-21.333334zM426.666667 384h42.666666v42.666667h-42.666666z" p-id="6667"></path><path d="M849.066667 354.133333a21.333333 21.333333 0 0 0 3.328-18.858666l-44.501334-149.333334A21.333333 21.333333 0 0 0 787.477333 170.666667H236.522667a21.333333 21.333333 0 0 0-20.458667 15.232l-44.501333 149.333333A21.333333 21.333333 0 0 0 192 362.666667h86.528a21.333333 21.333333 0 0 0 20.693333-16.192L311.104 298.666667H426.666667v42.666666h42.666666v-64a21.333333 21.333333 0 0 0-21.333333-21.333333h-153.6a21.333333 21.333333 0 0 0-20.693333 16.192L261.845333 320h-41.216l31.808-106.666667h519.125334l31.808 106.666667h-41.216l-11.882667-47.808A21.333333 21.333333 0 0 0 729.6 256H576a21.333333 21.333333 0 0 0-21.333333 21.333333v362.666667h42.666666V298.666667h115.562667l11.882667 47.808a21.333333 21.333333 0 0 0 20.693333 16.192H832a21.333333 21.333333 0 0 0 17.066667-8.533334z" p-id="6668" data-spm-anchor-id="a313x.7781069.0.i2" class="selected"></path></svg>