<?xml version="1.0" standalone="no"?><!DOCTYPE svg PUBLIC "-//W3C//DTD SVG 1.1//EN" "http://www.w3.org/Graphics/SVG/1.1/DTD/svg11.dtd"><svg t="1667627124021" class="icon" viewBox="0 0 1024 1024" version="1.1" xmlns="http://www.w3.org/2000/svg" p-id="8851" xmlns:xlink="http://www.w3.org/1999/xlink" width="48" height="48"><path d="M145.621959 0c-44.79888 0-79.998 36.81188-79.998 81.61076v860.77848c0 44.79888 35.19912 81.61076 79.998 81.61076h732.781681a81.969151 81.969151 0 0 0 81.61076-81.61076V324.80468L657.60916 0h-511.987201z" fill="#2B4255" p-id="8852"></path><path d="M657.60916 0v233.59416c0 25.59936 17.61236 92.79768 97.61036 92.79768h204.79488L657.60916 0z" fill="#FFFFFF" p-id="8853"></path><path d="M324.203095 655.036424c0.79358 0 1.535962 0.102397 2.175946 0.307192l2.175945 0.665584a22.348241 22.348241 0 0 0 6.579036 0.972775c4.710282 0 9.932552-0.511987 15.666808-1.510362s11.18692-2.303942 16.281193-3.891103 9.471763-3.430314 13.132472-5.478263 5.734257-4.172696 6.220644-6.37424a12.978876 12.978876 0 0 0 0.460789-3.148721c0-1.689558-0.81918-3.327917-2.483138-4.863879s-3.737507-3.020724-6.220645-4.428689-5.19667-2.687933-8.089398-3.891103l-8.089397-3.302317-5.094273-2.099148c-2.611135-0.998375-5.145471-2.227144-7.654209-3.686308s-4.81268-3.123122-6.963026-5.017474-4.044699-4.121497-5.708657-6.681433-2.867128-5.478263-3.686308-8.780581c-0.40959-1.407965-0.716782-2.79033-0.972775-4.198295s-0.38399-2.892728-0.383991-4.505487c0-2.611135 0.870378-5.58066 2.636734-8.934177s4.095898-6.681433 7.039824-9.98375 6.297443-6.451039 10.060549-9.446164 7.679808-5.503862 11.775705-7.500612c2.995125-2.099148 5.887853-3.9935 8.703783-5.708658s5.631859-3.148721 8.473388-4.351891 5.759856-2.150346 8.703782-2.841529 6.067048-1.049574 9.369366-1.049574c2.995125 0 6.246244 0.153596 9.753356 0.460789s6.707032 0.998375 9.59976 2.099147 5.324667 2.713532 7.270219 4.863879 2.918327 5.017475 2.918327 8.626984c0 1.100772-0.153596 2.559936-0.460789 4.351891s-0.79358 3.60951-1.510362 5.401465-1.561561 3.353516-2.559936 4.659084-2.201545 1.945551-3.60951 1.945551c-2.303942 0-4.198295-0.460788-5.708657-1.356766s-2.841529-1.868753-4.044699-2.918327-2.457539-2.022349-3.737507-2.918327-2.892728-1.356766-4.812679-1.356766c-2.303942 0-4.966276 0.435189-8.0126 1.279968s-6.169446 1.99675-9.369366 3.455913-6.323042 3.123122-9.369365 5.017475-5.811055 3.839904-8.242994 5.862253-4.428689 3.967901-5.913453 5.913453-2.252744 3.737507-2.252743 5.324666c0 1.689558 0.537587 3.097523 1.638359 4.198296s2.508737 2.047949 4.198295 2.841528c2.201545 1.20317 4.735882 2.40634 7.57741 3.60951l8.626985 3.60951c2.892728 1.20317 5.734257 2.40634 8.473388 3.60951s5.119872 2.303942 7.116622 3.302317c2.687933 1.407965 5.119872 2.764731 7.270218 4.121497s3.967901 2.81593 5.478263 4.428689 2.662333 3.404715 3.455914 5.401465 1.20317 4.351891 1.20317 7.039824c0 1.305567-0.102397 2.611135-0.307193 3.891103s-0.511987 2.79033-0.895977 4.505488c-0.307192 1.510362-0.81918 3.251119-1.58716 5.247868s-1.561561 3.967901-2.40634 5.913452-1.715157 3.711907-2.636734 5.247869-1.638359 2.585535-2.252744 3.071923c-3.891103 3.60951-8.498988 6.963026-13.798055 10.137347s-10.828529 5.887853-16.562786 8.242994-11.494113 4.223894-17.253969 5.631859-11.033324 2.099148-15.820404 2.099148c-2.40634 0-5.043074-0.486388-7.961401-1.433564s-5.58066-2.201545-8.0126-3.737507-4.505487-3.327917-6.143846-5.324667-2.483138-3.9935-2.483138-5.99025c0-0.998375 0.307192-2.124747 0.895977-3.379116a15.436414 15.436414 0 0 1 5.171071-6.143846 5.324667 5.324667 0 0 1 2.969526-1.126372zM495.795605 687.573211l-1.279968 0.230394a11.238119 11.238119 0 0 1-6.681433-1.279968 15.359616 15.359616 0 0 1-6.758231-7.731007 11.9805 11.9805 0 0 1-0.895977-4.428689l-2.099148-9.010975-3.071923-13.20927a1342.481638 1342.481638 0 0 1-10.598135-49.483563 602.78813 602.78813 0 0 1-2.559936-14.847628c-0.511987-3.19992-1.049574-6.195045-1.638359-9.010975s-1.151971-5.478263-1.638359-8.0126-0.921577-5.043074-1.279968-7.500612a51.19872 51.19872 0 0 1-0.537587-7.423815c0-2.79033 0.307192-5.478263 0.895978-8.012599s1.484763-4.81268 2.636734-6.758231 2.559936-3.532712 4.198295-4.735882 3.481513-1.791955 5.478263-1.791955c3.9935 0 7.167821 0.972776 9.522962 2.918327s4.172696 4.556686 5.478263 7.807805 2.227144 7.014225 2.764731 11.314917 0.972776 8.754981 1.279968 13.337266c0.40959 5.811055 1.049574 12.082898 1.945551 18.81553s1.894353 13.490863 2.995125 20.249094 2.227144 13.260468 3.379116 19.506712l3.071923 16.562786c2.995125-3.097523 8.242994-10.00935 15.743606-20.709882l10.265344-14.41244c3.148721-4.40309 6.118247-8.626984 8.934176-12.671683s5.452664-8.063798 7.961401-12.082898 4.915077-8.140596 7.270219-12.441289 4.659084-8.882978 6.911827-13.721257 4.531087-10.214145 6.835029-16.127597c0.691183-1.20317 1.561561-2.483138 2.559936-3.814304a18.841129 18.841129 0 0 1 8.191795-6.246244 15.61561 15.61561 0 0 1 5.913452-1.049574c4.607885 0 7.731007 1.151971 9.369366 3.455914s2.483138 5.19667 2.483138 8.703782c0 4.710282-0.81918 9.266968-2.483138 13.721257s-4.275093 9.21577-7.884603 14.335642l-70.347041 99.299917c-1.407965 2.995125-2.841529 5.503862-4.351891 7.500613s-2.969526 3.60951-4.42869 4.812679a18.713132 18.713132 0 0 1-7.551811 3.942302zM606.359241 750.880428a8.498988 8.498988 0 0 1-5.452664-2.175946 8.959776 8.959776 0 0 1-3.071923-6.963026c0-1.100772 0.153596-2.252744 0.460789-3.455913 0.79358-3.302317 1.638359-5.964651 2.559936-8.0126s2.201545-3.763106 3.891102-5.171071 3.9935-2.585535 6.911828-3.532711 6.707032-1.919952 11.391715-2.918327c2.995125-0.588785 5.836654-1.279968 8.473388-2.02235s4.81268-1.663958 6.527837-2.764731c5.094273-4.505487 9.420564-9.138972 12.978875-13.951651s6.553436-9.778956 9.010975-14.924427 4.505487-10.41894 6.143846-15.820404 3.225519-10.905327 4.735882-16.511587c0.588785-1.894353 1.126372-3.865503 1.58716-5.913453s1.023974-4.377491 1.715157-6.963025c-3.788705 3.302317-7.756606 6.604635-11.852503 9.906952s-8.294193 6.246244-12.594885 8.857378-8.678183 4.735882-13.132472 6.374241-8.882978 2.483138-13.286068 2.483138c-2.611135 0-5.529462-0.79358-8.78058-2.40634s-6.323042-3.711907-9.21577-6.297442-5.350266-5.631859-7.347016-9.062174-2.995125-7.065423-2.995125-10.879728c0-2.40634 0.307192-4.991875 0.895977-7.807805s1.151971-5.299068 1.638359-7.500612c1.61276-6.604635 3.942301-13.004475 7.039824-19.19952s6.707032-12.108497 10.80293-17.689158 8.601385-10.930927 13.490863-15.974001 10.00935-9.727757 15.308417-14.028449c6.604635-5.401465 13.20927-9.292568 19.788305-11.698907s13.59326-3.60951 20.991476-3.60951c3.097523 0 6.067048 0.153596 8.934176 0.460788s5.555061 0.921577 8.089398 1.868754 4.915077 2.355141 7.116622 4.198295 4.198295 4.275093 5.99025 7.270218c0.40959 0.691183 0.716782 1.535962 0.972776 2.483138s0.38399 1.766356 0.38399 2.483138c0 0.79358-0.230394 2.764731-0.665583 5.913452s-1.049574 7.039824-1.791955 11.698907-1.638359 9.855754-2.687933 15.590011l-3.225519 17.407564-3.302318 17.253969c-1.100772 5.862253-2.150346 10.726132-3.148721 15.231619-1.689558 7.910202-3.814305 16.050799-6.374241 24.447389s-5.657459 16.588385-9.292567 24.600985-7.935802 15.538812-12.82528 22.655434-10.598135 13.337267-17.100372 18.661933-13.849254 9.59976-22.041049 12.748481-17.458764 4.659084-27.647309 4.659084z m14.847629-124.208095c-0.307192 1.20317-0.563186 2.431939-0.81918 3.686308s-0.38399 2.483138-0.38399 3.686308c0 2.201545 0.40959 4.095898 1.20317 5.708657s2.252744 2.40634 4.351891 2.40634c3.302317 0 7.167821-1.177571 11.622109-3.532712s8.908577-5.324667 13.337267-8.934176 8.652584-7.500612 12.594885-11.698908 7.065423-8.191795 9.369366-12.0061a181.038674 181.038674 0 0 0 8.908577-15.666808c1.638359-3.225519 3.123122-6.502237 4.42869-9.753356s2.099148-6.118247 2.406339-8.626985c0-1.689558-0.358391-3.276718-1.049573-4.735881a25.59936 25.59936 0 0 1-1.791956-6.067048h-1.356766c-2.40634 0-5.145471 0.767981-8.242994 2.329541s-6.374241 3.58391-9.830154 6.067049-6.937427 5.324667-10.418939 8.473388a186.209745 186.209745 0 0 0-18.380341 19.045924c-2.559936 3.046324-4.531087 5.734257-5.913452 8.012599-2.099148 3.302317-4.0191 6.630234-5.785455 9.983751s-3.148721 7.244619-4.249494 11.622109z" fill="#FFFFFF" p-id="8854"></path></svg>