
<svg width="48" height="48" viewBox="0 0 64 64" fill="none" xmlns="http://www.w3.org/2000/svg">
<path d="M10 10C10 7.79086 11.7909 6 14 6H46C48.2091 6 50 7.79086 50 10V47C50 49.2091 48.2091 51 46 51H14C11.7909 51 10 49.2091 10 47V10Z" fill="#3B88FB"/>
<path d="M10 36H50V47C50 49.2091 48.2091 51 46 51H14C11.7909 51 10 49.2091 10 47V36Z" fill="#397EE5"/>
<path d="M10 10C10 7.79086 11.7909 6 14 6H46C48.2091 6 50 7.79086 50 10V21H10V10Z" fill="#4C92FF"/>
<g filter="url(#filter0_d_283_30697)">
<path d="M34 38C34 35.7909 35.7909 34 38 34H54C56.2091 34 58 35.7909 58 38V54C58 56.2091 56.2091 58 54 58H38C35.7909 58 34 56.2091 34 54V38Z" fill="url(#paint0_linear_283_30697)"/>
</g>
<path d="M53.0318 47.0322L48.9995 43M53.0318 47.0322L48.9995 51M53.0318 47.0322L42.0317 47.0322C40.9272 47.0322 40.0317 46.1368 40.0317 45.0322L40.0317 41" stroke="white" stroke-width="2.5" stroke-linecap="round" stroke-linejoin="round"/>
<path d="M20 16L25.5728 29L30 16.5417L34.4892 29L40 16" stroke="white" stroke-width="4" stroke-linecap="round" stroke-linejoin="round"/>
<defs>
<filter id="filter0_d_283_30697" x="31" y="31" width="30" height="30" filterUnits="userSpaceOnUse" color-interpolation-filters="sRGB">
<feFlood flood-opacity="0" result="BackgroundImageFix"/>
<feColorMatrix in="SourceAlpha" type="matrix" values="0 0 0 0 0 0 0 0 0 0 0 0 0 0 0 0 0 0 127 0" result="hardAlpha"/>
<feOffset/>
<feGaussianBlur stdDeviation="1.5"/>
<feComposite in2="hardAlpha" operator="out"/>
<feColorMatrix type="matrix" values="0 0 0 0 0.120149 0 0 0 0 0.346717 0 0 0 0 0.69 0 0 0 0.4 0"/>
<feBlend mode="normal" in2="BackgroundImageFix" result="effect1_dropShadow_283_30697"/>
<feBlend mode="normal" in="SourceGraphic" in2="effect1_dropShadow_283_30697" result="shape"/>
</filter>
<linearGradient id="paint0_linear_283_30697" x1="46" y1="34" x2="46" y2="58" gradientUnits="userSpaceOnUse">
<stop stop-color="#3692E9"/>
<stop offset="1" stop-color="#2365C9"/>
</linearGradient>
</defs>
</svg>
